<mxfile host="app.diagrams.net" agent="Mozilla/5.0 (Windows NT 10.0; Win64; x64) AppleWebKit/537.36 (KHTML, like Gecko) Chrome/132.0.0.0 Safari/537.36" version="26.0.10" pages="4">
  <diagram id="j6oHcpCu6y-IuE-7qXKP" name="lezione3erercizio1">
    <mxGraphModel dx="552" dy="460" grid="0" gridSize="10" guides="1" tooltips="1" connect="1" arrows="1" fold="1" page="0" pageScale="1" pageWidth="827" pageHeight="1169" math="0" shadow="0">
      <root>
        <mxCell id="0" />
        <mxCell id="1" parent="0" />
      </root>
    </mxGraphModel>
  </diagram>
  <diagram id="BPRduhN9phur5E-nMhcd" name="lezione3esercizio2">
    <mxGraphModel dx="552" dy="460" grid="0" gridSize="10" guides="1" tooltips="1" connect="1" arrows="1" fold="1" page="0" pageScale="1" pageWidth="827" pageHeight="1169" math="0" shadow="0">
      <root>
        <mxCell id="0" />
        <mxCell id="1" parent="0" />
      </root>
    </mxGraphModel>
  </diagram>
  <diagram id="46duhN9xtVhOd7lOR4ya" name="lezione3esercizio3">
    <mxGraphModel dx="1505" dy="639" grid="1" gridSize="10" guides="1" tooltips="1" connect="1" arrows="1" fold="1" page="0" pageScale="1" pageWidth="827" pageHeight="1169" math="0" shadow="0">
      <root>
        <mxCell id="0" />
        <mxCell id="1" parent="0" />
        <mxCell id="-n6Hcne-qnBYze9GUUZC-3" value="" style="edgeStyle=none;curved=1;rounded=0;orthogonalLoop=1;jettySize=auto;html=1;fontSize=12;startSize=8;endSize=8;" edge="1" parent="1" source="-n6Hcne-qnBYze9GUUZC-1" target="-n6Hcne-qnBYze9GUUZC-2">
          <mxGeometry relative="1" as="geometry" />
        </mxCell>
        <mxCell id="-n6Hcne-qnBYze9GUUZC-1" value="start" style="ellipse;whiteSpace=wrap;html=1;aspect=fixed;" vertex="1" parent="1">
          <mxGeometry x="160" width="80" height="80" as="geometry" />
        </mxCell>
        <mxCell id="-n6Hcne-qnBYze9GUUZC-5" value="" style="edgeStyle=none;curved=1;rounded=0;orthogonalLoop=1;jettySize=auto;html=1;fontSize=12;startSize=8;endSize=8;" edge="1" parent="1" source="-n6Hcne-qnBYze9GUUZC-2" target="-n6Hcne-qnBYze9GUUZC-4">
          <mxGeometry relative="1" as="geometry" />
        </mxCell>
        <mxCell id="-n6Hcne-qnBYze9GUUZC-2" value="read opzione" style="shape=parallelogram;perimeter=parallelogramPerimeter;whiteSpace=wrap;html=1;fixedSize=1;" vertex="1" parent="1">
          <mxGeometry x="140" y="120" width="120" height="60" as="geometry" />
        </mxCell>
        <mxCell id="-n6Hcne-qnBYze9GUUZC-7" value="" style="edgeStyle=none;curved=1;rounded=0;orthogonalLoop=1;jettySize=auto;html=1;fontSize=12;startSize=8;endSize=8;" edge="1" parent="1" source="-n6Hcne-qnBYze9GUUZC-4" target="-n6Hcne-qnBYze9GUUZC-6">
          <mxGeometry relative="1" as="geometry" />
        </mxCell>
        <mxCell id="-n6Hcne-qnBYze9GUUZC-4" value="read postio" style="shape=parallelogram;perimeter=parallelogramPerimeter;whiteSpace=wrap;html=1;fixedSize=1;" vertex="1" parent="1">
          <mxGeometry x="140" y="200" width="120" height="60" as="geometry" />
        </mxCell>
        <mxCell id="-n6Hcne-qnBYze9GUUZC-9" value="" style="edgeStyle=none;curved=1;rounded=0;orthogonalLoop=1;jettySize=auto;html=1;fontSize=12;startSize=8;endSize=8;" edge="1" parent="1" source="-n6Hcne-qnBYze9GUUZC-6" target="-n6Hcne-qnBYze9GUUZC-8">
          <mxGeometry relative="1" as="geometry" />
        </mxCell>
        <mxCell id="-n6Hcne-qnBYze9GUUZC-6" value="read postil" style="shape=parallelogram;perimeter=parallelogramPerimeter;whiteSpace=wrap;html=1;fixedSize=1;" vertex="1" parent="1">
          <mxGeometry x="140" y="290" width="120" height="60" as="geometry" />
        </mxCell>
        <mxCell id="-n6Hcne-qnBYze9GUUZC-11" value="" style="edgeStyle=none;curved=1;rounded=0;orthogonalLoop=1;jettySize=auto;html=1;fontSize=12;startSize=8;endSize=8;" edge="1" parent="1" source="-n6Hcne-qnBYze9GUUZC-8" target="-n6Hcne-qnBYze9GUUZC-10">
          <mxGeometry relative="1" as="geometry" />
        </mxCell>
        <mxCell id="-n6Hcne-qnBYze9GUUZC-39" value="" style="edgeStyle=none;curved=1;rounded=0;orthogonalLoop=1;jettySize=auto;html=1;fontSize=12;startSize=8;endSize=8;" edge="1" parent="1" source="-n6Hcne-qnBYze9GUUZC-8" target="-n6Hcne-qnBYze9GUUZC-38">
          <mxGeometry relative="1" as="geometry" />
        </mxCell>
        <mxCell id="-n6Hcne-qnBYze9GUUZC-8" value="opzione&lt;div&gt;==&lt;/div&gt;&lt;div&gt;ingresso&lt;/div&gt;" style="rhombus;whiteSpace=wrap;html=1;" vertex="1" parent="1">
          <mxGeometry x="160" y="390" width="80" height="80" as="geometry" />
        </mxCell>
        <mxCell id="-n6Hcne-qnBYze9GUUZC-13" value="" style="edgeStyle=none;curved=1;rounded=0;orthogonalLoop=1;jettySize=auto;html=1;fontSize=12;startSize=8;endSize=8;" edge="1" parent="1" source="-n6Hcne-qnBYze9GUUZC-10" target="-n6Hcne-qnBYze9GUUZC-12">
          <mxGeometry relative="1" as="geometry" />
        </mxCell>
        <mxCell id="-n6Hcne-qnBYze9GUUZC-10" value="" style="shape=waypoint;sketch=0;size=6;pointerEvents=1;points=[];fillColor=default;resizable=0;rotatable=0;perimeter=centerPerimeter;snapToPoint=1;" vertex="1" parent="1">
          <mxGeometry x="340" y="420" width="20" height="20" as="geometry" />
        </mxCell>
        <mxCell id="-n6Hcne-qnBYze9GUUZC-15" value="" style="edgeStyle=none;curved=1;rounded=0;orthogonalLoop=1;jettySize=auto;html=1;fontSize=12;startSize=8;endSize=8;" edge="1" parent="1" source="-n6Hcne-qnBYze9GUUZC-12" target="-n6Hcne-qnBYze9GUUZC-14">
          <mxGeometry relative="1" as="geometry" />
        </mxCell>
        <mxCell id="-n6Hcne-qnBYze9GUUZC-23" value="" style="edgeStyle=none;curved=1;rounded=0;orthogonalLoop=1;jettySize=auto;html=1;fontSize=12;startSize=8;endSize=8;" edge="1" parent="1" source="-n6Hcne-qnBYze9GUUZC-12" target="-n6Hcne-qnBYze9GUUZC-22">
          <mxGeometry relative="1" as="geometry" />
        </mxCell>
        <mxCell id="-n6Hcne-qnBYze9GUUZC-12" value="postil&amp;gt;0" style="rhombus;whiteSpace=wrap;html=1;sketch=0;pointerEvents=1;resizable=0;" vertex="1" parent="1">
          <mxGeometry x="310" y="480" width="80" height="80" as="geometry" />
        </mxCell>
        <mxCell id="-n6Hcne-qnBYze9GUUZC-17" value="" style="edgeStyle=none;curved=1;rounded=0;orthogonalLoop=1;jettySize=auto;html=1;fontSize=12;startSize=8;endSize=8;" edge="1" parent="1" source="-n6Hcne-qnBYze9GUUZC-14" target="-n6Hcne-qnBYze9GUUZC-16">
          <mxGeometry relative="1" as="geometry" />
        </mxCell>
        <mxCell id="-n6Hcne-qnBYze9GUUZC-14" value="" style="shape=waypoint;sketch=0;size=6;pointerEvents=1;points=[];fillColor=default;resizable=0;rotatable=0;perimeter=centerPerimeter;snapToPoint=1;" vertex="1" parent="1">
          <mxGeometry x="450" y="510" width="20" height="20" as="geometry" />
        </mxCell>
        <mxCell id="-n6Hcne-qnBYze9GUUZC-19" value="" style="edgeStyle=none;curved=1;rounded=0;orthogonalLoop=1;jettySize=auto;html=1;fontSize=12;startSize=8;endSize=8;" edge="1" parent="1" source="-n6Hcne-qnBYze9GUUZC-16" target="-n6Hcne-qnBYze9GUUZC-18">
          <mxGeometry relative="1" as="geometry" />
        </mxCell>
        <mxCell id="-n6Hcne-qnBYze9GUUZC-16" value="postio+=1" style="whiteSpace=wrap;html=1;sketch=0;pointerEvents=1;resizable=0;" vertex="1" parent="1">
          <mxGeometry x="400" y="580" width="120" height="60" as="geometry" />
        </mxCell>
        <mxCell id="-n6Hcne-qnBYze9GUUZC-21" value="" style="edgeStyle=none;curved=1;rounded=0;orthogonalLoop=1;jettySize=auto;html=1;fontSize=12;startSize=8;endSize=8;" edge="1" parent="1" source="-n6Hcne-qnBYze9GUUZC-18" target="-n6Hcne-qnBYze9GUUZC-20">
          <mxGeometry relative="1" as="geometry" />
        </mxCell>
        <mxCell id="-n6Hcne-qnBYze9GUUZC-18" value="postil -= 0" style="whiteSpace=wrap;html=1;sketch=0;pointerEvents=1;resizable=0;" vertex="1" parent="1">
          <mxGeometry x="400" y="680" width="120" height="60" as="geometry" />
        </mxCell>
        <mxCell id="-n6Hcne-qnBYze9GUUZC-30" value="" style="edgeStyle=none;curved=1;rounded=0;orthogonalLoop=1;jettySize=auto;html=1;fontSize=12;startSize=8;endSize=8;" edge="1" parent="1" source="-n6Hcne-qnBYze9GUUZC-20" target="-n6Hcne-qnBYze9GUUZC-28">
          <mxGeometry relative="1" as="geometry" />
        </mxCell>
        <mxCell id="-n6Hcne-qnBYze9GUUZC-20" value="" style="shape=waypoint;sketch=0;size=6;pointerEvents=1;points=[];fillColor=default;resizable=0;rotatable=0;perimeter=centerPerimeter;snapToPoint=1;" vertex="1" parent="1">
          <mxGeometry x="450" y="770" width="20" height="20" as="geometry" />
        </mxCell>
        <mxCell id="-n6Hcne-qnBYze9GUUZC-25" value="" style="edgeStyle=none;curved=1;rounded=0;orthogonalLoop=1;jettySize=auto;html=1;fontSize=12;startSize=8;endSize=8;" edge="1" parent="1" source="-n6Hcne-qnBYze9GUUZC-22" target="-n6Hcne-qnBYze9GUUZC-24">
          <mxGeometry relative="1" as="geometry" />
        </mxCell>
        <mxCell id="-n6Hcne-qnBYze9GUUZC-22" value="" style="shape=waypoint;sketch=0;size=6;pointerEvents=1;points=[];fillColor=default;resizable=0;rotatable=0;perimeter=centerPerimeter;snapToPoint=1;" vertex="1" parent="1">
          <mxGeometry x="230" y="510" width="20" height="20" as="geometry" />
        </mxCell>
        <mxCell id="-n6Hcne-qnBYze9GUUZC-27" value="" style="edgeStyle=none;curved=1;rounded=0;orthogonalLoop=1;jettySize=auto;html=1;fontSize=12;startSize=8;endSize=8;" edge="1" parent="1" source="-n6Hcne-qnBYze9GUUZC-24" target="-n6Hcne-qnBYze9GUUZC-26">
          <mxGeometry relative="1" as="geometry" />
        </mxCell>
        <mxCell id="-n6Hcne-qnBYze9GUUZC-24" value="write &quot;Non ci sono posti&quot;" style="shape=parallelogram;perimeter=parallelogramPerimeter;whiteSpace=wrap;html=1;fixedSize=1;sketch=0;pointerEvents=1;resizable=0;" vertex="1" parent="1">
          <mxGeometry x="180" y="630" width="120" height="60" as="geometry" />
        </mxCell>
        <mxCell id="-n6Hcne-qnBYze9GUUZC-29" value="" style="edgeStyle=none;curved=1;rounded=0;orthogonalLoop=1;jettySize=auto;html=1;fontSize=12;startSize=8;endSize=8;" edge="1" parent="1" source="-n6Hcne-qnBYze9GUUZC-26" target="-n6Hcne-qnBYze9GUUZC-28">
          <mxGeometry relative="1" as="geometry" />
        </mxCell>
        <mxCell id="-n6Hcne-qnBYze9GUUZC-26" value="" style="shape=waypoint;sketch=0;size=6;pointerEvents=1;points=[];fillColor=default;resizable=0;rotatable=0;perimeter=centerPerimeter;snapToPoint=1;" vertex="1" parent="1">
          <mxGeometry x="230" y="770" width="20" height="20" as="geometry" />
        </mxCell>
        <mxCell id="-n6Hcne-qnBYze9GUUZC-32" value="" style="edgeStyle=none;curved=1;rounded=0;orthogonalLoop=1;jettySize=auto;html=1;fontSize=12;startSize=8;endSize=8;" edge="1" parent="1" source="-n6Hcne-qnBYze9GUUZC-28" target="-n6Hcne-qnBYze9GUUZC-31">
          <mxGeometry relative="1" as="geometry" />
        </mxCell>
        <mxCell id="-n6Hcne-qnBYze9GUUZC-28" value="" style="shape=waypoint;sketch=0;size=6;pointerEvents=1;points=[];fillColor=none;resizable=0;rotatable=0;perimeter=centerPerimeter;snapToPoint=1;" vertex="1" parent="1">
          <mxGeometry x="340" y="770" width="20" height="20" as="geometry" />
        </mxCell>
        <mxCell id="-n6Hcne-qnBYze9GUUZC-34" value="" style="edgeStyle=none;curved=1;rounded=0;orthogonalLoop=1;jettySize=auto;html=1;fontSize=12;startSize=8;endSize=8;" edge="1" parent="1" source="-n6Hcne-qnBYze9GUUZC-31" target="-n6Hcne-qnBYze9GUUZC-33">
          <mxGeometry relative="1" as="geometry" />
        </mxCell>
        <mxCell id="-n6Hcne-qnBYze9GUUZC-31" value="" style="shape=waypoint;sketch=0;size=6;pointerEvents=1;points=[];fillColor=none;resizable=0;rotatable=0;perimeter=centerPerimeter;snapToPoint=1;" vertex="1" parent="1">
          <mxGeometry x="340" y="830" width="20" height="20" as="geometry" />
        </mxCell>
        <mxCell id="-n6Hcne-qnBYze9GUUZC-36" value="" style="edgeStyle=none;curved=1;rounded=0;orthogonalLoop=1;jettySize=auto;html=1;fontSize=12;startSize=8;endSize=8;" edge="1" parent="1" source="-n6Hcne-qnBYze9GUUZC-33" target="-n6Hcne-qnBYze9GUUZC-35">
          <mxGeometry relative="1" as="geometry" />
        </mxCell>
        <mxCell id="-n6Hcne-qnBYze9GUUZC-33" value="" style="shape=waypoint;sketch=0;size=6;pointerEvents=1;points=[];fillColor=none;resizable=0;rotatable=0;perimeter=centerPerimeter;snapToPoint=1;" vertex="1" parent="1">
          <mxGeometry x="550" y="830" width="20" height="20" as="geometry" />
        </mxCell>
        <mxCell id="-n6Hcne-qnBYze9GUUZC-37" style="edgeStyle=none;curved=1;rounded=0;orthogonalLoop=1;jettySize=auto;html=1;entryX=1;entryY=0.25;entryDx=0;entryDy=0;fontSize=12;startSize=8;endSize=8;exitX=0.194;exitY=1.111;exitDx=0;exitDy=0;exitPerimeter=0;" edge="1" parent="1" source="-n6Hcne-qnBYze9GUUZC-35" target="-n6Hcne-qnBYze9GUUZC-2">
          <mxGeometry relative="1" as="geometry" />
        </mxCell>
        <mxCell id="-n6Hcne-qnBYze9GUUZC-35" value="" style="shape=waypoint;sketch=0;size=6;pointerEvents=1;points=[];fillColor=none;resizable=0;rotatable=0;perimeter=centerPerimeter;snapToPoint=1;" vertex="1" parent="1">
          <mxGeometry x="550" y="127" width="20" height="20" as="geometry" />
        </mxCell>
        <mxCell id="-n6Hcne-qnBYze9GUUZC-41" value="" style="edgeStyle=none;curved=1;rounded=0;orthogonalLoop=1;jettySize=auto;html=1;fontSize=12;startSize=8;endSize=8;" edge="1" parent="1" source="-n6Hcne-qnBYze9GUUZC-38" target="-n6Hcne-qnBYze9GUUZC-40">
          <mxGeometry relative="1" as="geometry" />
        </mxCell>
        <mxCell id="-n6Hcne-qnBYze9GUUZC-38" value="" style="shape=waypoint;sketch=0;size=6;pointerEvents=1;points=[];fillColor=default;resizable=0;rotatable=0;perimeter=centerPerimeter;snapToPoint=1;" vertex="1" parent="1">
          <mxGeometry x="-171" y="420" width="20" height="20" as="geometry" />
        </mxCell>
        <mxCell id="-n6Hcne-qnBYze9GUUZC-43" value="" style="edgeStyle=none;curved=1;rounded=0;orthogonalLoop=1;jettySize=auto;html=1;fontSize=12;startSize=8;endSize=8;" edge="1" parent="1" source="-n6Hcne-qnBYze9GUUZC-40" target="-n6Hcne-qnBYze9GUUZC-42">
          <mxGeometry relative="1" as="geometry" />
        </mxCell>
        <mxCell id="-n6Hcne-qnBYze9GUUZC-40" value="opzione&lt;div&gt;==&lt;/div&gt;&lt;div&gt;uscita&lt;/div&gt;" style="rhombus;whiteSpace=wrap;html=1;sketch=0;pointerEvents=1;resizable=0;" vertex="1" parent="1">
          <mxGeometry x="-201" y="480" width="80" height="80" as="geometry" />
        </mxCell>
        <mxCell id="-n6Hcne-qnBYze9GUUZC-45" value="" style="edgeStyle=none;curved=1;rounded=0;orthogonalLoop=1;jettySize=auto;html=1;fontSize=12;startSize=8;endSize=8;" edge="1" parent="1" source="-n6Hcne-qnBYze9GUUZC-42" target="-n6Hcne-qnBYze9GUUZC-44">
          <mxGeometry relative="1" as="geometry" />
        </mxCell>
        <mxCell id="-n6Hcne-qnBYze9GUUZC-42" value="" style="shape=waypoint;sketch=0;size=6;pointerEvents=1;points=[];fillColor=default;resizable=0;rotatable=0;perimeter=centerPerimeter;snapToPoint=1;" vertex="1" parent="1">
          <mxGeometry x="-21" y="510" width="20" height="20" as="geometry" />
        </mxCell>
        <mxCell id="-n6Hcne-qnBYze9GUUZC-47" value="" style="edgeStyle=none;curved=1;rounded=0;orthogonalLoop=1;jettySize=auto;html=1;fontSize=12;startSize=8;endSize=8;" edge="1" parent="1" source="-n6Hcne-qnBYze9GUUZC-44" target="-n6Hcne-qnBYze9GUUZC-46">
          <mxGeometry relative="1" as="geometry" />
        </mxCell>
        <mxCell id="-n6Hcne-qnBYze9GUUZC-55" style="edgeStyle=none;curved=1;rounded=0;orthogonalLoop=1;jettySize=auto;html=1;fontSize=12;startSize=8;endSize=8;" edge="1" parent="1" source="-n6Hcne-qnBYze9GUUZC-44" target="-n6Hcne-qnBYze9GUUZC-53">
          <mxGeometry relative="1" as="geometry" />
        </mxCell>
        <mxCell id="-n6Hcne-qnBYze9GUUZC-44" value="posti &amp;gt; 1" style="rhombus;whiteSpace=wrap;html=1;sketch=0;pointerEvents=1;resizable=0;" vertex="1" parent="1">
          <mxGeometry x="-51" y="550" width="80" height="80" as="geometry" />
        </mxCell>
        <mxCell id="-n6Hcne-qnBYze9GUUZC-49" value="" style="edgeStyle=none;curved=1;rounded=0;orthogonalLoop=1;jettySize=auto;html=1;fontSize=12;startSize=8;endSize=8;" edge="1" parent="1" source="-n6Hcne-qnBYze9GUUZC-46" target="-n6Hcne-qnBYze9GUUZC-48">
          <mxGeometry relative="1" as="geometry" />
        </mxCell>
        <mxCell id="-n6Hcne-qnBYze9GUUZC-46" value="" style="shape=waypoint;sketch=0;size=6;pointerEvents=1;points=[];fillColor=default;resizable=0;rotatable=0;perimeter=centerPerimeter;snapToPoint=1;" vertex="1" parent="1">
          <mxGeometry x="100" y="580" width="20" height="20" as="geometry" />
        </mxCell>
        <mxCell id="-n6Hcne-qnBYze9GUUZC-51" value="" style="edgeStyle=none;curved=1;rounded=0;orthogonalLoop=1;jettySize=auto;html=1;fontSize=12;startSize=8;endSize=8;" edge="1" parent="1" source="-n6Hcne-qnBYze9GUUZC-48" target="-n6Hcne-qnBYze9GUUZC-50">
          <mxGeometry relative="1" as="geometry" />
        </mxCell>
        <mxCell id="-n6Hcne-qnBYze9GUUZC-48" value="postio -= 1" style="whiteSpace=wrap;html=1;sketch=0;pointerEvents=1;resizable=0;" vertex="1" parent="1">
          <mxGeometry x="50" y="630" width="120" height="60" as="geometry" />
        </mxCell>
        <mxCell id="-n6Hcne-qnBYze9GUUZC-62" value="" style="edgeStyle=none;curved=1;rounded=0;orthogonalLoop=1;jettySize=auto;html=1;fontSize=12;startSize=8;endSize=8;" edge="1" parent="1" source="-n6Hcne-qnBYze9GUUZC-50" target="-n6Hcne-qnBYze9GUUZC-61">
          <mxGeometry relative="1" as="geometry" />
        </mxCell>
        <mxCell id="-n6Hcne-qnBYze9GUUZC-50" value="postil += 1" style="whiteSpace=wrap;html=1;sketch=0;pointerEvents=1;resizable=0;" vertex="1" parent="1">
          <mxGeometry x="50" y="720" width="120" height="60" as="geometry" />
        </mxCell>
        <mxCell id="-n6Hcne-qnBYze9GUUZC-57" value="" style="edgeStyle=none;curved=1;rounded=0;orthogonalLoop=1;jettySize=auto;html=1;fontSize=12;startSize=8;endSize=8;" edge="1" parent="1" source="-n6Hcne-qnBYze9GUUZC-53" target="-n6Hcne-qnBYze9GUUZC-56">
          <mxGeometry relative="1" as="geometry" />
        </mxCell>
        <mxCell id="-n6Hcne-qnBYze9GUUZC-53" value="" style="shape=waypoint;sketch=0;size=6;pointerEvents=1;points=[];fillColor=none;resizable=0;rotatable=0;perimeter=centerPerimeter;snapToPoint=1;" vertex="1" parent="1">
          <mxGeometry x="-130" y="580" width="20" height="20" as="geometry" />
        </mxCell>
        <mxCell id="-n6Hcne-qnBYze9GUUZC-64" value="" style="edgeStyle=none;curved=1;rounded=0;orthogonalLoop=1;jettySize=auto;html=1;fontSize=12;startSize=8;endSize=8;" edge="1" parent="1" source="-n6Hcne-qnBYze9GUUZC-56" target="-n6Hcne-qnBYze9GUUZC-58">
          <mxGeometry relative="1" as="geometry" />
        </mxCell>
        <mxCell id="-n6Hcne-qnBYze9GUUZC-56" value="" style="shape=waypoint;sketch=0;size=6;pointerEvents=1;points=[];fillColor=none;resizable=0;rotatable=0;perimeter=centerPerimeter;snapToPoint=1;" vertex="1" parent="1">
          <mxGeometry x="-130" y="820" width="20" height="20" as="geometry" />
        </mxCell>
        <mxCell id="-n6Hcne-qnBYze9GUUZC-58" value="" style="shape=waypoint;sketch=0;size=6;pointerEvents=1;points=[];fillColor=none;resizable=0;rotatable=0;perimeter=centerPerimeter;snapToPoint=1;" vertex="1" parent="1">
          <mxGeometry x="-10" y="820" width="20" height="20" as="geometry" />
        </mxCell>
        <mxCell id="-n6Hcne-qnBYze9GUUZC-63" value="" style="edgeStyle=none;curved=1;rounded=0;orthogonalLoop=1;jettySize=auto;html=1;fontSize=12;startSize=8;endSize=8;" edge="1" parent="1" source="-n6Hcne-qnBYze9GUUZC-61" target="-n6Hcne-qnBYze9GUUZC-58">
          <mxGeometry relative="1" as="geometry" />
        </mxCell>
        <mxCell id="-n6Hcne-qnBYze9GUUZC-61" value="" style="shape=waypoint;sketch=0;size=6;pointerEvents=1;points=[];fillColor=default;resizable=0;rotatable=0;perimeter=centerPerimeter;snapToPoint=1;" vertex="1" parent="1">
          <mxGeometry x="100" y="820" width="20" height="20" as="geometry" />
        </mxCell>
      </root>
    </mxGraphModel>
  </diagram>
  <diagram name="lezione3esercizio4" id="8IuszUc1OzBynfdBTSCt">
    <mxGraphModel dx="613" dy="511" grid="1" gridSize="10" guides="1" tooltips="1" connect="1" arrows="1" fold="1" page="1" pageScale="1" pageWidth="827" pageHeight="1169" math="0" shadow="0">
      <root>
        <mxCell id="0" />
        <mxCell id="1" parent="0" />
        <mxCell id="3EG1fO6ykwSyQBf9OrIZ-3" value="" style="edgeStyle=orthogonalEdgeStyle;rounded=0;orthogonalLoop=1;jettySize=auto;html=1;" parent="1" source="3EG1fO6ykwSyQBf9OrIZ-1" target="3EG1fO6ykwSyQBf9OrIZ-2" edge="1">
          <mxGeometry relative="1" as="geometry" />
        </mxCell>
        <mxCell id="3EG1fO6ykwSyQBf9OrIZ-1" value="start" style="ellipse;whiteSpace=wrap;html=1;" parent="1" vertex="1">
          <mxGeometry x="360" y="10" width="120" height="80" as="geometry" />
        </mxCell>
        <mxCell id="3EG1fO6ykwSyQBf9OrIZ-5" value="" style="edgeStyle=orthogonalEdgeStyle;rounded=0;orthogonalLoop=1;jettySize=auto;html=1;" parent="1" source="3EG1fO6ykwSyQBf9OrIZ-2" target="3EG1fO6ykwSyQBf9OrIZ-4" edge="1">
          <mxGeometry relative="1" as="geometry" />
        </mxCell>
        <mxCell id="3EG1fO6ykwSyQBf9OrIZ-2" value="n_tutor = 0" style="whiteSpace=wrap;html=1;" parent="1" vertex="1">
          <mxGeometry x="360" y="110" width="120" height="60" as="geometry" />
        </mxCell>
        <mxCell id="3EG1fO6ykwSyQBf9OrIZ-56" style="edgeStyle=orthogonalEdgeStyle;rounded=0;orthogonalLoop=1;jettySize=auto;html=1;exitX=0.5;exitY=1;exitDx=0;exitDy=0;entryX=0.5;entryY=0;entryDx=0;entryDy=0;" parent="1" source="3EG1fO6ykwSyQBf9OrIZ-4" target="3EG1fO6ykwSyQBf9OrIZ-8" edge="1">
          <mxGeometry relative="1" as="geometry" />
        </mxCell>
        <mxCell id="3EG1fO6ykwSyQBf9OrIZ-4" value="l_attesa = 0" style="whiteSpace=wrap;html=1;" parent="1" vertex="1">
          <mxGeometry x="360" y="190" width="120" height="60" as="geometry" />
        </mxCell>
        <mxCell id="3EG1fO6ykwSyQBf9OrIZ-11" value="" style="edgeStyle=orthogonalEdgeStyle;rounded=0;orthogonalLoop=1;jettySize=auto;html=1;" parent="1" source="3EG1fO6ykwSyQBf9OrIZ-8" edge="1">
          <mxGeometry relative="1" as="geometry">
            <mxPoint x="419" y="350" as="targetPoint" />
          </mxGeometry>
        </mxCell>
        <mxCell id="3EG1fO6ykwSyQBf9OrIZ-8" value="read n_studente" style="shape=parallelogram;perimeter=parallelogramPerimeter;whiteSpace=wrap;html=1;fixedSize=1;" parent="1" vertex="1">
          <mxGeometry x="359" y="270" width="120" height="60" as="geometry" />
        </mxCell>
        <mxCell id="3EG1fO6ykwSyQBf9OrIZ-15" value="" style="edgeStyle=orthogonalEdgeStyle;rounded=0;orthogonalLoop=1;jettySize=auto;html=1;" parent="1" source="3EG1fO6ykwSyQBf9OrIZ-12" target="3EG1fO6ykwSyQBf9OrIZ-14" edge="1">
          <mxGeometry relative="1" as="geometry" />
        </mxCell>
        <mxCell id="3EG1fO6ykwSyQBf9OrIZ-29" value="true" style="edgeLabel;html=1;align=center;verticalAlign=middle;resizable=0;points=[];" parent="3EG1fO6ykwSyQBf9OrIZ-15" vertex="1" connectable="0">
          <mxGeometry x="-0.3567" relative="1" as="geometry">
            <mxPoint as="offset" />
          </mxGeometry>
        </mxCell>
        <mxCell id="3EG1fO6ykwSyQBf9OrIZ-36" value="" style="edgeStyle=orthogonalEdgeStyle;rounded=0;orthogonalLoop=1;jettySize=auto;html=1;" parent="1" source="3EG1fO6ykwSyQBf9OrIZ-12" target="3EG1fO6ykwSyQBf9OrIZ-35" edge="1">
          <mxGeometry relative="1" as="geometry" />
        </mxCell>
        <mxCell id="3EG1fO6ykwSyQBf9OrIZ-37" value="false" style="edgeLabel;html=1;align=center;verticalAlign=middle;resizable=0;points=[];" parent="3EG1fO6ykwSyQBf9OrIZ-36" vertex="1" connectable="0">
          <mxGeometry x="-0.5006" relative="1" as="geometry">
            <mxPoint as="offset" />
          </mxGeometry>
        </mxCell>
        <mxCell id="3EG1fO6ykwSyQBf9OrIZ-12" value="n_tutor &amp;gt; 0" style="rhombus;whiteSpace=wrap;html=1;" parent="1" vertex="1">
          <mxGeometry x="379" y="350" width="80" height="80" as="geometry" />
        </mxCell>
        <mxCell id="3EG1fO6ykwSyQBf9OrIZ-17" value="" style="edgeStyle=orthogonalEdgeStyle;rounded=0;orthogonalLoop=1;jettySize=auto;html=1;" parent="1" source="3EG1fO6ykwSyQBf9OrIZ-14" target="3EG1fO6ykwSyQBf9OrIZ-16" edge="1">
          <mxGeometry relative="1" as="geometry" />
        </mxCell>
        <mxCell id="3EG1fO6ykwSyQBf9OrIZ-14" value="n_tutor = n_tutor - 1" style="whiteSpace=wrap;html=1;" parent="1" vertex="1">
          <mxGeometry x="469" y="455" width="120" height="60" as="geometry" />
        </mxCell>
        <mxCell id="3EG1fO6ykwSyQBf9OrIZ-21" value="" style="edgeStyle=orthogonalEdgeStyle;rounded=0;orthogonalLoop=1;jettySize=auto;html=1;exitX=0.5;exitY=1;exitDx=0;exitDy=0;entryX=0.86;entryY=0.313;entryDx=0;entryDy=0;entryPerimeter=0;" parent="1" source="3EG1fO6ykwSyQBf9OrIZ-16" edge="1">
          <mxGeometry relative="1" as="geometry">
            <mxPoint x="337.79999999999995" y="745.04" as="targetPoint" />
            <Array as="points">
              <mxPoint x="529" y="690" />
              <mxPoint x="338" y="690" />
            </Array>
          </mxGeometry>
        </mxCell>
        <mxCell id="3EG1fO6ykwSyQBf9OrIZ-16" value="write tutor&amp;nbsp;&lt;div&gt;assegnato&lt;/div&gt;" style="shape=parallelogram;perimeter=parallelogramPerimeter;whiteSpace=wrap;html=1;fixedSize=1;" parent="1" vertex="1">
          <mxGeometry x="469" y="545" width="120" height="60" as="geometry" />
        </mxCell>
        <mxCell id="3EG1fO6ykwSyQBf9OrIZ-39" value="" style="edgeStyle=orthogonalEdgeStyle;rounded=0;orthogonalLoop=1;jettySize=auto;html=1;" parent="1" source="3EG1fO6ykwSyQBf9OrIZ-35" target="3EG1fO6ykwSyQBf9OrIZ-38" edge="1">
          <mxGeometry relative="1" as="geometry" />
        </mxCell>
        <mxCell id="3EG1fO6ykwSyQBf9OrIZ-35" value="l_attesa = l_attesa + 1" style="whiteSpace=wrap;html=1;" parent="1" vertex="1">
          <mxGeometry x="249" y="465" width="120" height="60" as="geometry" />
        </mxCell>
        <mxCell id="3EG1fO6ykwSyQBf9OrIZ-41" value="" style="edgeStyle=orthogonalEdgeStyle;rounded=0;orthogonalLoop=1;jettySize=auto;html=1;" parent="1" source="3EG1fO6ykwSyQBf9OrIZ-38" edge="1">
          <mxGeometry relative="1" as="geometry">
            <mxPoint x="309" y="720" as="targetPoint" />
          </mxGeometry>
        </mxCell>
        <mxCell id="3EG1fO6ykwSyQBf9OrIZ-38" value="write studente in&lt;div&gt;&amp;nbsp;lista d&#39;attesa&lt;/div&gt;" style="shape=parallelogram;perimeter=parallelogramPerimeter;whiteSpace=wrap;html=1;fixedSize=1;" parent="1" vertex="1">
          <mxGeometry x="249" y="545" width="120" height="60" as="geometry" />
        </mxCell>
        <mxCell id="3EG1fO6ykwSyQBf9OrIZ-43" value="" style="edgeStyle=orthogonalEdgeStyle;rounded=0;orthogonalLoop=1;jettySize=auto;html=1;" parent="1" edge="1">
          <mxGeometry relative="1" as="geometry">
            <mxPoint x="349" y="760" as="sourcePoint" />
            <mxPoint x="519" y="760" as="targetPoint" />
          </mxGeometry>
        </mxCell>
        <mxCell id="3EG1fO6ykwSyQBf9OrIZ-44" value="true" style="edgeLabel;html=1;align=center;verticalAlign=middle;resizable=0;points=[];" parent="3EG1fO6ykwSyQBf9OrIZ-43" vertex="1" connectable="0">
          <mxGeometry x="-0.0121" relative="1" as="geometry">
            <mxPoint as="offset" />
          </mxGeometry>
        </mxCell>
        <mxCell id="3EG1fO6ykwSyQBf9OrIZ-45" style="edgeStyle=orthogonalEdgeStyle;rounded=0;orthogonalLoop=1;jettySize=auto;html=1;exitX=0;exitY=0.5;exitDx=0;exitDy=0;entryX=0;entryY=0.75;entryDx=0;entryDy=0;" parent="1" target="3EG1fO6ykwSyQBf9OrIZ-8" edge="1">
          <mxGeometry relative="1" as="geometry">
            <mxPoint x="229" y="310" as="targetPoint" />
            <mxPoint x="269" y="760" as="sourcePoint" />
            <Array as="points">
              <mxPoint x="229" y="760" />
              <mxPoint x="229" y="314" />
            </Array>
          </mxGeometry>
        </mxCell>
        <mxCell id="3EG1fO6ykwSyQBf9OrIZ-50" value="false" style="edgeLabel;html=1;align=center;verticalAlign=middle;resizable=0;points=[];" parent="3EG1fO6ykwSyQBf9OrIZ-45" vertex="1" connectable="0">
          <mxGeometry x="-0.831" y="-1" relative="1" as="geometry">
            <mxPoint as="offset" />
          </mxGeometry>
        </mxCell>
        <mxCell id="3EG1fO6ykwSyQBf9OrIZ-40" value="l_attesa&amp;nbsp;&lt;div&gt;==&lt;/div&gt;&lt;div&gt;&amp;nbsp;50&amp;nbsp;&lt;/div&gt;&lt;div&gt;and tutor == 0&lt;/div&gt;" style="rhombus;whiteSpace=wrap;html=1;" parent="1" vertex="1">
          <mxGeometry x="269" y="710" width="80" height="80" as="geometry" />
        </mxCell>
        <mxCell id="3EG1fO6ykwSyQBf9OrIZ-42" value="end" style="ellipse;whiteSpace=wrap;html=1;" parent="1" vertex="1">
          <mxGeometry x="519" y="710" width="80" height="80" as="geometry" />
        </mxCell>
      </root>
    </mxGraphModel>
  </diagram>
</mxfile>
